# Blender v2.74 (sub 0) OBJ File: ''
# www.blender.org
mtllib low-poly-dead-tree.mtl
o Circle_Circle
v 0.144016 2.219406 -0.667494
v -0.431514 2.275203 -0.534446
v -0.791207 7.832070 -0.600426
v -0.390106 6.981223 -0.804176
v 1.061400 0.000391 0.175065
v 0.690902 -0.001401 -0.627461
v 0.611098 2.231302 -0.301787
v 0.618011 3.098235 0.285511
v -0.346844 0.002412 1.080587
v 0.337312 0.001585 0.709958
v 0.159549 3.174419 0.654372
v -0.419057 2.402493 0.527034
v -0.621169 -0.001098 -0.491936
v -0.773408 0.000391 0.175065
v -0.682104 2.356680 -0.002831
v -0.084031 -0.002234 -1.000648
v -0.146160 7.546030 -0.367136
v -0.441002 9.538297 0.036770
v -0.067806 9.505467 0.310077
v -0.073205 8.100126 0.069683
v -0.583754 8.078267 0.302663
v -0.965822 8.146808 -0.118318
v -1.047420 7.568177 -0.381794
v -0.112881 9.543921 0.526971
v 2.152350 11.511392 0.475695
v 2.059860 11.453203 0.749791
v -0.418115 9.879829 0.875371
v -0.658725 9.481067 0.390695
v -0.837589 9.297525 0.170747
v -0.596887 9.222045 -0.017733
v -0.558322 9.630979 0.203092
v -1.432000 11.734959 -1.152471
v -1.527470 11.736851 -1.065895
v -0.599279 12.070827 1.162655
v -0.981955 12.402287 1.189275
v -1.426120 13.498643 2.063740
v -1.073850 13.404634 2.059670
v 1.763300 11.657395 0.477308
v 3.435500 12.578240 1.257463
v 3.747310 12.439464 1.268163
v 1.992520 11.589566 0.240300
v 3.279050 12.049811 -0.859705
v 3.122300 12.184760 -0.793606
v 3.611010 12.278329 1.387373
v 3.134770 12.056791 -0.913621
v -1.443270 13.190126 2.101829
v -0.966106 13.462946 3.274983
v -0.595675 13.722450 3.500474
v -1.118370 12.099340 1.302622
v -0.746554 12.061583 1.545967
v -1.141900 13.122694 2.132190
v -1.059640 11.842788 1.190194
v -0.875143 11.890451 0.949993
v -1.600600 14.126741 3.003000
v -1.854380 13.948307 2.988119
v -1.858460 14.172972 2.971717
v -0.607021 13.494381 3.469943
v -1.717780 13.292901 0.253760
v -1.630540 13.315448 0.140172
v -1.745560 13.414120 0.306928
v -1.681050 13.557401 0.253326
v -1.634730 11.548765 -1.193555
v -1.931410 12.532640 -2.236465
v -2.170720 12.522390 -2.213881
v -1.471040 11.570097 -1.268973
v -1.585040 11.608065 -1.014946
v -2.870890 12.800834 -1.388281
v -2.976840 12.702783 -1.590213
v -2.875320 12.922196 -1.584623
v -3.890840 13.116572 -1.281696
v -3.774610 13.306095 -1.316709
v -2.906310 12.717779 -1.771007
v -3.581940 13.399309 -2.206149
v -3.704740 13.204810 -2.116085
v -2.046500 12.464627 -2.331833
v -3.573570 13.116740 -2.236889
v -3.847400 13.272941 -1.117254
vt 0.780605 0.099039
vt 0.860392 0.114878
vt 0.873261 0.351427
vt 0.815815 0.290315
vt 0.680917 0.078746
vt 0.727914 0.022991
vt 0.715375 0.123923
vt 0.705665 0.199321
vt 0.859060 0.148840
vt 0.773934 0.120072
vt 0.768656 0.231244
vt 0.854111 0.196376
vt 0.900285 0.041288
vt 0.916661 0.089857
vt 0.892286 0.158645
vt 0.831164 0.000000
vt 0.769587 0.350843
vt 0.782333 0.526962
vt 0.724777 0.543803
vt 0.751274 0.412050
vt 0.833783 0.431571
vt 0.897016 0.406200
vt 0.915864 0.356935
vt 0.732304 0.562272
vt 0.303101 0.627232
vt 0.327119 0.643979
vt 0.780359 0.609369
vt 0.827869 0.556406
vt 0.889816 0.530848
vt 0.858721 0.500460
vt 0.805580 0.549801
vt 0.793774 0.730508
vt 0.858395 0.757401
vt 0.923557 0.894546
vt 0.861625 0.885391
vt 0.370246 0.639548
vt 0.051761 0.747388
vt 0.000000 0.736457
vt 0.325379 0.615909
vt 0.029933 0.550159
vt 0.058115 0.566219
vt 0.035425 0.734282
vt 0.056715 0.547155
vt 0.928375 0.874286
vt 0.837504 0.959142
vt 0.771634 0.988442
vt 0.884608 0.744943
vt 0.818922 0.756190
vt 0.875750 0.869580
vt 0.877036 0.719781
vt 0.845192 0.705508
vt 0.942864 0.996878
vt 0.988014 0.983808
vt 0.987889 1.000000
vt 0.776195 0.970196
vt 0.995839 0.761460
vt 0.980202 0.754372
vt 1.000000 0.774598
vt 0.987484 0.781263
vn 0.146800 0.077300 -0.986100
vn -0.693100 0.005200 -0.720800
vn -0.395000 0.267700 -0.878800
vn 0.201000 0.060500 -0.977700
vn 0.959700 0.107600 0.259500
vn 0.756400 0.121100 -0.642800
vn 0.823100 0.113100 -0.556500
vn 0.929200 0.127600 0.346800
vn -0.448900 0.113700 0.886300
vn 0.384400 0.085600 0.919200
vn 0.130800 0.078500 0.988300
vn -0.564000 0.065600 0.823100
vn -0.778000 0.075800 -0.623700
vn -0.995300 0.061000 0.075800
vn -0.999900 -0.002300 -0.014800
vn -0.016600 0.121700 -0.992400
vn 0.829900 0.172400 -0.530700
vn 0.590900 0.306700 -0.746200
vn 0.856700 -0.332400 -0.394300
vn 0.911800 -0.018100 0.410300
vn -0.148800 -0.068800 0.986500
vn -0.794400 -0.033100 0.606500
vn -0.986900 0.014400 -0.160400
vn 0.754300 -0.104600 0.648200
vn 0.808400 -0.406800 -0.425400
vn 0.111100 -0.488800 0.865300
vn 0.112800 -0.256700 0.959900
vn -0.870700 0.003800 0.491800
vn -0.991900 -0.124400 0.025100
vn -0.189600 0.128400 -0.973400
vn -0.041600 0.999100 0.010000
vn 0.819900 0.562400 -0.107400
vn 0.296900 0.514700 0.804300
vn 0.922100 0.303600 -0.239700
vn 0.158900 0.868900 -0.468800
vn -0.412100 0.565300 -0.714600
vn 0.716800 0.651700 -0.248000
vn -0.508100 0.849900 0.139500
vn -0.188800 0.979300 0.073100
vn 0.958800 0.254200 0.126400
vn -0.300100 -0.268000 -0.915500
vn 0.896800 0.138900 -0.420000
vn -0.105600 0.984900 -0.137500
vn 0.316100 -0.456900 0.831400
vn -0.154900 -0.219600 -0.963200
vn -0.902900 -0.388700 0.183500
vn -0.849200 -0.118500 0.514600
vn 0.503500 0.498500 0.705700
vn -0.846200 -0.272600 0.457800
vn 0.317800 -0.311300 0.895600
vn 0.485400 -0.677600 0.552500
vn -0.910400 -0.383200 0.156200
vn -0.012100 0.059500 -0.998200
vn 0.647900 0.523400 0.553500
vn -0.661500 -0.463900 0.589200
vn -0.598500 0.770300 0.220300
vn 0.485000 -0.617800 0.618900
vn -0.887300 -0.311500 -0.340000
vn 0.112400 0.008300 -0.993600
vn -0.938300 0.271200 0.214400
vn -0.101700 0.977900 -0.182500
vn -0.794000 -0.508900 -0.332400
vn 0.540800 0.835500 -0.097700
vn -0.956200 0.230900 -0.180000
vn 0.277000 -0.502200 -0.819200
vn -0.552700 0.020700 0.833100
vn 0.141000 0.266500 0.953500
vn -0.706500 -0.630600 0.321300
vn 0.445500 0.851800 -0.275600
vn -0.843900 -0.483600 -0.232200
vn -0.165400 0.886400 -0.432400
vn 0.051800 -0.569500 -0.820300
vn -0.240300 0.937300 -0.252200
vn -0.982800 -0.114800 0.145000
vn 0.085200 -0.003700 -0.996400
vn -0.085500 -0.429300 -0.899100
vn -0.501600 0.323700 0.802200
usemtl DefaultMaterial
s 1
f 1/1/1 2/2/2 3/3/3 4/4/4
f 5/5/5 6/6/6 7/7/7 8/8/8
f 9/9/9 10/10/10 11/11/11 12/12/12
f 13/13/13 14/14/14 15/15/15 2/2/2
f 6/6/6 16/16/16 1/1/1 7/7/7
f 10/10/10 5/5/5 8/8/8 11/11/11
f 14/14/14 9/9/9 12/12/12 15/15/15
f 16/16/16 13/13/13 2/2/2 1/1/1
f 17/17/17 4/4/4 18/18/18 19/19/19
f 8/8/8 7/7/7 17/17/17 20/20/20
f 12/12/12 11/11/11 21/21/21 22/22/22
f 2/2/2 15/15/15 23/23/23 3/3/3
f 7/7/7 1/1/1 4/4/4 17/17/17
f 11/11/11 8/8/8 20/20/20 21/21/21
f 15/15/15 12/12/12 22/22/22 23/23/23
f 24/24/24 19/19/19 25/25/25 26/26/26
f 21/21/21 20/20/20 24/24/24 27/27/27
f 23/23/23 22/22/22 28/28/28 29/29/29
f 4/4/4 3/3/3 30/30/30 18/18/18
f 20/20/20 17/17/17 19/19/19 24/24/24
f 22/22/22 21/21/21 27/27/27 28/28/28
f 3/3/3 23/23/23 29/29/29 30/30/30
f 31/31/31 18/18/18 32/18/32 33/31/33
f 34/32/34 35/33/35 36/34/36 37/35/37
f 25/25/25 38/36/38 39/37/39 40/38/40
f 31/31/31 24/24/24 26/26/26 38/36/38
f 18/18/18 31/31/31 38/36/38 41/39/41
f 19/19/19 18/18/18 41/39/41 25/25/25
f 38/36/38 25/25/25 42/40/42 43/41/43
f 44/42/44 40/38/40 39/37/39
f 38/36/38 26/26/26 44/42/44 39/37/39
f 26/26/26 25/25/25 40/38/40 44/42/44
f 42/40/42 45/43/45 43/41/43
f 41/39/41 38/36/38 43/41/43 45/43/45
f 25/25/25 41/39/41 45/43/45 42/40/42
f 37/35/37 46/44/46 47/45/47 48/46/48
f 49/47/49 50/48/50 51/49/51 46/44/46
f 50/48/50 34/32/34 37/35/37 51/49/51
f 35/33/35 49/47/49 46/44/46 36/34/36
f 31/31/31 28/28/28 52/50/52 53/51/53
f 27/27/27 24/24/24 34/32/34 50/48/50
f 28/28/28 27/27/27 50/48/50 49/47/49 52/50/52
f 24/24/24 31/31/31 53/51/53 35/33/35 34/32/34
f 46/44/46 37/35/37 54/52/54 55/53/55
f 54/52/54 56/54/56 55/53/55
f 37/35/37 36/34/36 56/54/56 54/52/54
f 36/34/36 46/44/46 55/53/55 56/54/56
f 57/55/57 48/46/48 47/45/47
f 51/49/51 37/35/37 48/46/48 57/55/57
f 46/44/46 51/49/51 57/55/57 47/45/47
f 53/51/53 52/50/52 58/56/58 59/57/59
f 59/57/59 58/56/58 60/58/60 61/59/61
f 49/47/49 35/33/35 61/59/61 60/58/60
f 35/33/35 53/51/53 59/57/59 61/59/61
f 52/50/52 49/47/49 60/58/60 58/56/58
f 62/29/62 32/18/32 63/18/63 64/29/64
f 30/30/30 29/29/29 62/29/62 65/30/65
f 28/28/28 31/31/31 33/31/33 66/28/66
f 29/29/29 28/28/28 66/28/66 62/29/62
f 18/18/18 30/30/30 65/30/65 32/18/32
f 66/28/66 33/31/33 67/31/67 68/28/68
f 69/18/69 68/28/68 70/28/70 71/18/71
f 62/29/62 66/28/66 68/28/68 72/29/72
f 33/31/33 32/18/32 69/18/69 67/31/67
f 32/18/32 62/29/62 72/29/72 69/18/69
f 68/28/68 69/18/69 73/18/73 74/28/74
f 63/18/63 75/30/75 64/29/64
f 65/30/65 62/29/62 64/29/64 75/30/75
f 32/18/32 65/30/65 75/30/75 63/18/63
f 73/18/73 76/29/76 74/28/74
f 69/18/69 72/29/72 76/29/76 73/18/73
f 72/29/72 68/28/68 74/28/74 76/29/76
f 77/31/77 71/18/71 70/28/70
f 68/28/68 67/31/67 77/31/77 70/28/70
f 67/31/67 69/18/69 71/18/71 77/31/77
