# Blender v2.74 (sub 0) OBJ File: ''
# www.blender.org
mtllib gem.mtl
o Icosphere
v 0.001423 -0.085796 -0.004239
v 0.063475 0.020066 0.040845
v -0.022279 0.020066 0.068708
v 0.063475 0.020066 -0.049322
v -0.075279 0.020066 -0.004239
v -0.022279 0.020066 -0.077186
v 0.046534 0.072201 -0.004239
v 0.015363 0.072201 0.038664
v -0.035073 0.072201 0.022277
v -0.035073 0.072201 -0.030754
v 0.015363 0.072201 -0.047142
v 0.001423 0.113039 -0.004239
vt 0.500700 0.182100
vt 1.115900 1.231600
vt 0.265700 1.231600
vt 0.055200 0.231600
vt 0.502100 -0.817900
vt 0.949100 0.231600
vt 0.502100 0.182100
vt -0.221000 1.231600
vt 0.502100 1.231600
vt 1.225300 1.231600
vt 0.502100 0.748400
vt 0.265700 0.231600
vt 1.115900 0.231600
vt 0.638900 0.748400
vt 0.502100 0.231600
vt -0.221000 0.231600
vt 0.239300 0.748400
vt 0.225300 0.231600
vt -0.497900 0.231600
vt -0.235000 0.748400
vt 0.115900 0.231600
vt -0.734300 0.231600
vt -0.361100 0.748400
vt 0.076800 0.748400
vt 0.138900 0.748400
vt 0.765000 0.748400
vt 0.927400 0.748400
vt 0.638900 0.076800
vt 0.947900 0.502100
vt 0.500700 0.502100
vt 0.500700 1.153300
vt 0.502100 1.153300
vt 0.638900 0.927400
vn 0.266600 -0.505700 0.820500
vn 0.862700 -0.505700 0.000000
vn -0.697900 -0.505700 0.507100
vn -0.697900 -0.505700 -0.507100
vn 0.266600 -0.505700 -0.820500
vn 0.951000 0.309000 0.000000
vn 0.293900 0.309000 0.904500
vn -0.769400 0.309000 0.559000
vn -0.769400 0.309100 -0.559000
vn 0.293900 0.309000 -0.904500
vn 0.640600 0.610700 0.465500
vn -0.244700 0.610700 0.753100
vn -0.791900 0.610700 0.000000
vn -0.244700 0.610700 -0.753100
vn 0.640600 0.610700 -0.465500
vn 0.603200 0.666400 0.438300
vn -0.230400 0.666400 0.709100
vn -0.745600 0.666400 0.000000
vn -0.230400 0.666300 -0.709100
vn 0.603200 0.666400 -0.438300
usemtl Standard
s 1
f 1/1/1 2/2/1 3/3/1
f 2/4/2 1/5/2 4/6/2
f 1/7/3 3/8/3 5/9/3
f 1/7/4 5/9/4 6/10/4
f 1/1/5 6/3/5 4/2/5
f 2/4/6 4/6/6 7/11/6
f 3/12/7 2/13/7 8/14/7
f 5/15/8 3/16/8 9/17/8
f 6/18/9 5/19/9 10/20/9
f 4/21/10 6/22/10 11/23/10
f 2/4/11 7/11/11 8/24/11
f 3/12/12 8/14/12 9/25/12
f 5/15/13 9/17/13 10/26/13
f 6/12/14 10/25/14 11/14/14
f 4/6/15 11/27/15 7/11/15
f 8/28/16 7/29/16 12/30/16
f 9/25/17 8/14/17 12/31/17
f 10/26/18 9/17/18 12/32/18
f 11/14/19 10/25/19 12/31/19
f 7/29/20 11/33/20 12/30/20
