# Blender v2.74 (sub 0) OBJ File: ''
# www.blender.org
mtllib exp-crystal.mtl
o Duplicate0
v 0.008122 6.471864 -0.037324
v 0.001068 6.471864 -0.037324
v 0.006056 6.471864 -0.032336
v 1.109764 2.554324 -0.037324
v 1.109764 4.817533 -0.037324
v 0.785034 2.554324 0.746643
v 0.785034 4.817533 0.746643
v 0.001068 6.471864 -0.030270
v 0.001068 4.817533 1.071372
v 0.001068 2.554324 1.071372
v -0.003920 6.471864 -0.032336
v -0.782898 2.554324 0.746643
v -0.782898 4.817533 0.746643
v -0.005986 6.471864 -0.037324
v -0.782898 2.554324 0.746643
v -0.782898 4.817533 0.746643
v -1.107628 4.817533 -0.037324
v -1.107628 2.554324 -0.037324
v -0.003920 6.471864 -0.042312
v -0.782898 2.554324 -0.821290
v -0.782898 4.817533 -0.821290
v 0.001068 6.471864 -0.044378
v -0.782898 2.554324 -0.821290
v -0.782898 4.817533 -0.821290
v 0.001068 4.817533 -1.146019
v 0.001068 2.554324 -1.146019
v 0.006056 6.471864 -0.042312
v 0.785034 2.554324 -0.821290
v 0.785034 4.817533 -0.821290
v 0.785034 2.554324 -0.821290
v 0.785034 4.817533 -0.821290
v 0.006056 6.471864 -0.032336
v 0.008122 6.471864 -0.037324
v 0.001068 6.471864 -0.030270
v 0.006056 6.471864 -0.032336
v -0.003920 6.471864 -0.032336
v -0.005986 6.471864 -0.037324
v -0.003920 6.471864 -0.032336
v -0.003920 6.471864 -0.042312
v 0.001068 6.471864 -0.044378
v -0.003920 6.471864 -0.042312
v 0.006056 6.471864 -0.042312
v 0.006056 6.471864 -0.042312
v -0.019721 0.825812 -0.041440
v -0.019721 0.825812 -0.041440
v -0.019721 0.825812 -0.041440
v -0.019721 0.825812 -0.041440
v -0.019721 0.825812 -0.041440
v -0.019721 0.825812 -0.041440
vt 0.864496 0.499997
vt 0.500000 0.499997
vt 0.757738 0.242258
vt 0.500000 0.904913
vt 0.500000 0.095084
vt 0.853553 0.904913
vt 0.853553 0.095084
vt 0.500000 0.135501
vt 0.242262 0.242258
vt 0.146447 0.904913
vt 0.146447 0.095084
vt 0.135504 0.499997
vt 0.242262 0.757745
vt 0.500000 0.864503
vt 0.757738 0.757745
vt 0.757742 0.000000
vt 0.500003 0.000000
vt 0.242262 0.000000
vt 0.500004 1.000000
vt 0.786376 1.000000
vt 0.213616 1.000000
vn 0.000000 1.000000 0.000000
vn 0.000000 1.000000 0.000100
vn 0.923900 0.000000 0.382700
vn 0.382700 0.000000 0.923900
vn -0.382700 0.000000 0.923900
vn -0.923900 0.000000 0.382700
vn 0.000000 1.000000 -0.000100
vn -0.923900 0.000000 -0.382700
vn -0.382700 0.000000 -0.923900
vn 0.382700 0.000000 -0.923900
vn 0.923900 0.000000 -0.382700
vn 0.786900 0.524000 0.325900
vn 0.325900 0.524000 0.786900
vn -0.325900 0.524000 0.786900
vn -0.786900 0.524000 0.325900
vn -0.786900 0.524000 -0.325900
vn -0.325900 0.524000 -0.786900
vn 0.325900 0.524000 -0.786900
vn 0.786900 0.524000 -0.325900
vn 0.790600 -0.517400 0.327500
vn 0.328200 -0.514100 0.792400
vn -0.329600 -0.508300 0.795600
vn -0.798400 -0.503300 0.330700
vn -0.799000 -0.502100 -0.331000
vn -0.330200 -0.505500 -0.797200
vn 0.328900 -0.511300 -0.794000
vn 0.791200 -0.516300 -0.327700
usemtl purple25
s 1
f 1/1/1 2/2/1 3/3/2
f 4/4/3 5/5/3 6/6/3
f 5/5/3 7/7/3 6/6/3
f 3/3/2 2/2/1 8/8/1
f 6/6/4 7/7/4 9/5/4
f 6/6/4 9/5/4 10/4/4
f 8/8/1 2/2/1 11/9/2
f 10/4/5 9/5/5 12/10/5
f 9/5/5 13/11/5 12/10/5
f 11/9/2 2/2/1 14/12/1
f 15/6/6 16/7/6 17/5/6
f 15/6/6 17/5/6 18/4/6
f 14/12/1 2/2/1 19/13/7
f 18/4/8 17/5/8 20/10/8
f 17/5/8 21/11/8 20/10/8
f 19/13/7 2/2/1 22/14/1
f 23/10/9 24/11/9 25/5/9
f 23/10/9 25/5/9 26/4/9
f 22/14/1 2/2/1 27/15/7
f 26/4/10 25/5/10 28/6/10
f 25/5/10 29/7/10 28/6/10
f 27/15/7 2/2/1 1/1/1
f 30/10/11 31/11/11 5/5/11
f 30/10/11 5/5/11 4/4/11
f 32/16/12 7/7/12 5/5/12
f 32/16/12 5/5/12 33/17/12
f 34/17/13 9/5/13 7/7/13
f 34/17/13 7/7/13 35/16/13
f 36/18/14 13/11/14 9/5/14
f 36/18/14 9/5/14 34/17/14
f 37/17/15 17/5/15 16/7/15
f 37/17/15 16/7/15 38/16/15
f 39/18/16 21/11/16 17/5/16
f 39/18/16 17/5/16 37/17/16
f 40/17/17 25/5/17 24/11/17
f 40/17/17 24/11/17 41/18/17
f 42/16/18 29/7/18 25/5/18
f 42/16/18 25/5/18 40/17/18
f 33/17/19 5/5/19 31/11/19
f 33/17/19 31/11/19 43/18/19
f 44/19/20 4/4/20 6/6/20
f 45/20/21 6/6/21 10/4/21
f 46/19/22 10/4/22 12/10/22
f 47/20/23 15/6/23 18/4/23
f 44/19/24 18/4/24 20/10/24
f 48/21/25 23/10/25 26/4/25
f 46/19/26 26/4/26 28/6/26
f 49/21/27 30/10/27 4/4/27
o Cylinder0
v 0.010294 7.560020 -0.019787
v 0.000618 7.560020 -0.019787
v 0.007460 7.560020 -0.012945
v 1.521462 2.186165 -0.019787
v 1.521462 5.290704 -0.019787
v 1.076017 2.186165 1.055613
v 1.076017 5.290704 1.055613
v 0.000618 7.560020 -0.010111
v 0.000618 5.290704 1.501058
v 0.000618 2.186165 1.501058
v -0.006225 7.560020 -0.012945
v -1.074782 2.186165 1.055613
v -1.074782 5.290704 1.055613
v -0.009059 7.560020 -0.019787
v -1.074782 2.186165 1.055613
v -1.074782 5.290704 1.055613
v -1.520227 5.290704 -0.019787
v -1.520227 2.186165 -0.019787
v -0.006225 7.560020 -0.026630
v -1.074782 2.186165 -1.095187
v -1.074782 5.290704 -1.095187
v 0.000618 7.560020 -0.029464
v -1.074782 2.186165 -1.095187
v -1.074782 5.290704 -1.095187
v 0.000618 5.290704 -1.540632
v 0.000618 2.186165 -1.540632
v 0.007460 7.560020 -0.026630
v 1.076017 2.186165 -1.095187
v 1.076017 5.290704 -1.095187
v 1.076017 2.186165 -1.095187
v 1.076017 5.290704 -1.095187
v 0.007460 7.560020 -0.012945
v 0.010294 7.560020 -0.019787
v 0.000618 7.560020 -0.010111
v 0.007460 7.560020 -0.012945
v -0.006225 7.560020 -0.012945
v -0.009059 7.560020 -0.019787
v -0.006225 7.560020 -0.012945
v -0.006225 7.560020 -0.026630
v 0.000618 7.560020 -0.029464
v -0.006225 7.560020 -0.026630
v 0.007460 7.560020 -0.026630
v 0.007460 7.560020 -0.026630
v -0.027900 -0.184907 -0.025433
v -0.027900 -0.184907 -0.025433
v -0.027900 -0.184907 -0.025433
v -0.027900 -0.184907 -0.025433
v -0.028912 -0.184907 -0.025433
v -0.027900 -0.184907 -0.025433
v -0.027900 -0.184907 -0.025433
vt 0.864496 0.499997
vt 0.500000 0.499997
vt 0.757738 0.242258
vt 0.500000 0.904913
vt 0.500000 0.095084
vt 0.853553 0.904913
vt 0.853553 0.095084
vt 0.500000 0.135501
vt 0.242262 0.242258
vt 0.146447 0.904913
vt 0.146447 0.095084
vt 0.135504 0.499997
vt 0.242262 0.757745
vt 0.500000 0.864503
vt 0.757738 0.757745
vt 0.757742 0.000000
vt 0.500003 0.000000
vt 0.242262 0.000000
vt 0.500004 1.000000
vt 0.786376 1.000000
vt 0.213616 1.000000
vn 0.000000 1.000000 0.000100
vn 0.000000 1.000000 0.000000
vn 0.923900 0.000000 0.382700
vn 0.382700 0.000000 0.923900
vn -0.382700 0.000000 0.923900
vn -0.923900 0.000000 0.382700
vn -0.923900 0.000000 -0.382700
vn -0.382700 0.000000 -0.923900
vn 0.382700 0.000000 -0.923900
vn 0.923900 0.000000 -0.382700
vn 0.786900 0.524000 0.325900
vn 0.325900 0.524000 0.786900
vn -0.325900 0.524000 0.786900
vn -0.786900 0.524000 0.326000
vn -0.786900 0.524000 0.325900
vn -0.786900 0.524000 -0.325900
vn -0.325900 0.524000 -0.786900
vn 0.325900 0.524000 -0.786900
vn 0.786900 0.524000 -0.325900
vn 0.790600 -0.517400 0.327500
vn 0.328200 -0.514100 0.792400
vn -0.329600 -0.508300 0.795600
vn -0.798500 -0.503000 0.330800
vn -0.798400 -0.503300 0.330700
vn -0.798500 -0.503000 0.330700
vn -0.799100 -0.501900 -0.331000
vn -0.799100 -0.501800 -0.331000
vn -0.799000 -0.501900 -0.331300
vn -0.330200 -0.505500 -0.797200
vn 0.328900 -0.511300 -0.794000
vn 0.791200 -0.516300 -0.327700
usemtl transtex
s 1
f 50/22/28 51/23/29 52/24/28
f 53/25/30 54/26/30 55/27/30
f 54/26/30 56/28/30 55/27/30
f 52/24/28 51/23/29 57/29/29
f 55/27/31 56/28/31 58/26/31
f 55/27/31 58/26/31 59/25/31
f 57/29/29 51/23/29 60/30/29
f 59/25/32 58/26/32 61/31/32
f 58/26/32 62/32/32 61/31/32
f 60/30/29 51/23/29 63/33/28
f 64/27/33 65/28/33 66/26/33
f 64/27/33 66/26/33 67/25/33
f 63/33/28 51/23/29 68/34/28
f 67/25/34 66/26/34 69/31/34
f 66/26/34 70/32/34 69/31/34
f 68/34/28 51/23/29 71/35/29
f 72/31/35 73/32/35 74/26/35
f 72/31/35 74/26/35 75/25/35
f 71/35/29 51/23/29 76/36/29
f 75/25/36 74/26/36 77/27/36
f 74/26/36 78/28/36 77/27/36
f 76/36/29 51/23/29 50/22/28
f 79/31/37 80/32/37 54/26/37
f 79/31/37 54/26/37 53/25/37
f 81/37/38 56/28/38 54/26/38
f 81/37/38 54/26/38 82/38/38
f 83/38/39 58/26/39 56/28/39
f 83/38/39 56/28/39 84/37/39
f 85/39/40 62/32/40 58/26/40
f 85/39/40 58/26/40 83/38/40
f 86/38/41 66/26/42 65/28/42
f 86/38/41 65/28/42 87/37/41
f 88/39/43 70/32/43 66/26/43
f 88/39/43 66/26/43 86/38/43
f 89/38/44 74/26/44 73/32/44
f 89/38/44 73/32/44 90/39/44
f 91/37/45 78/28/45 74/26/45
f 91/37/45 74/26/45 89/38/45
f 82/38/46 54/26/46 80/32/46
f 82/38/46 80/32/46 92/39/46
f 93/40/47 53/25/47 55/27/47
f 94/41/48 55/27/48 59/25/48
f 95/40/49 59/25/49 61/31/49
f 96/41/50 64/27/51 67/25/51
f 96/41/50 67/25/51 97/40/52
f 97/40/53 67/25/54 69/31/55
f 97/40/53 69/31/55 98/42/53
f 99/42/56 72/31/56 75/25/56
f 95/40/57 75/25/57 77/27/57
f 98/42/58 79/31/58 53/25/58
